<svg width="24" height="24" viewBox="0 0 24 24" fill="none" xmlns="http://www.w3.org/2000/svg">
  <path d="M20.52 3.449C18.241 1.17 15.232 0 12.02 0 5.442 0 .102 5.34.1 11.918c-.003 2.099.549 4.142 1.595 5.945L0 24l6.335-1.652c1.746.943 3.71 1.444 5.71 1.447H12.02c6.624 0 12.024-5.384 12.024-12.007C24.044 8.554 22.799 5.726 20.52 3.449zM12.02 21.785h-.024c-1.777-.003-3.522-.48-5.045-1.38l-.362-.215-3.754.98.998-3.648-.235-.374c-1.0-1.593-1.527-3.432-1.524-5.31C2.075 6.508 6.658 1.925 12.044 1.925c2.618 0 5.082 1.02 6.928 2.87s2.859 4.315 2.856 6.934c-.003 5.332-4.586 9.915-9.808 9.056z" fill="#25D366"/>
  <path d="M18.566 14.417c-.29-.145-1.72-.848-1.986-.946-.265-.098-.458-.147-.65.147-.193.294-.749.946-.919 1.14-.17.194-.339.22-.628.074-.29-.146-1.225-.451-2.332-1.438-.862-.766-1.445-1.713-1.614-2.004-.17-.292-.018-.45.128-.595.131-.129.29-.338.435-.507.145-.17.193-.292.29-.486.096-.195.048-.365-.024-.51-.073-.146-.65-1.565-.891-2.144-.235-.563-.473-.487-.65-.496-.168-.008-.361-.01-.553-.01s-.506.073-.772.365c-.265.292-1.012.99-1.012 2.415s1.036 2.803 1.182 2.995c.145.193 2.048 3.127 4.964 4.387.693.3 1.235.479 1.657.613.696.221 1.33.19 1.831.115.558-.083 1.72-.703 1.962-1.382.242-.678.242-1.26.17-1.382-.073-.122-.265-.195-.555-.34z" fill="#25D366"/>
</svg>